#define 8383ad7f3fe147ab8ba6588abe215a32DNlygXqgM7AFB5sI_width 32
#define 8383ad7f3fe147ab8ba6588abe215a32DNlygXqgM7AFB5sI_height 32
static char 8383ad7f3fe147ab8ba6588abe215a32DNlygXqgM7AFB5sI_bits[] = {
  0x00, 0x00, 0x00, 0x00, 0x00, 0x80, 0x01, 0x00, 0x00, 0x80, 0x02, 0x00, 
  0x00, 0x40, 0x06, 0x00, 0x00, 0x60, 0x04, 0x00, 0x00, 0x20, 0x0C, 0x00, 
  0x00, 0x70, 0x09, 0x00, 0x00, 0x10, 0x18, 0x00, 0x00, 0x18, 0x18, 0x00, 
  0x00, 0x70, 0x1C, 0x00, 0x00, 0xC0, 0x03, 0x00, 0x80, 0x81, 0x81, 0x03, 
  0xE0, 0x03, 0xC0, 0x0E, 0x30, 0x86, 0x43, 0x18, 0x18, 0xC6, 0x67, 0x32, 
  0x06, 0x48, 0x24, 0xC0, 0x06, 0x4C, 0x64, 0x60, 0x1C, 0xC6, 0x46, 0x31, 
  0x30, 0x82, 0xC3, 0x1C, 0xE0, 0x03, 0x80, 0x07, 0x80, 0x83, 0x83, 0x01, 
  0x00, 0xE0, 0x06, 0x00, 0x00, 0x70, 0x1C, 0x00, 0x00, 0x18, 0x18, 0x00, 
  0x00, 0x10, 0x18, 0x00, 0x00, 0x30, 0x08, 0x00, 0x00, 0x20, 0x0C, 0x00, 
  0x00, 0x60, 0x06, 0x00, 0x00, 0x40, 0x02, 0x00, 0x00, 0xC0, 0x03, 0x00, 
  0x00, 0x80, 0x01, 0x00, 0x00, 0x00, 0x00, 0x00, };
